<svg width="16" height="16" viewBox="0 0 16 16" fill="none" xmlns="http://www.w3.org/2000/svg">
<path fill-rule="evenodd" clip-rule="evenodd" d="M1.64604 4.64601C1.69249 4.59945 1.74766 4.5625 1.80841 4.5373C1.86915 4.51209 1.93427 4.49911 2.00004 4.49911C2.06581 4.49911 2.13093 4.51209 2.19167 4.5373C2.25242 4.5625 2.30759 4.59945 2.35404 4.64601L8.00004 10.293L13.646 4.64601C13.6925 4.59952 13.7477 4.56264 13.8085 4.53749C13.8692 4.51233 13.9343 4.49938 14 4.49938C14.0658 4.49938 14.1309 4.51233 14.1916 4.53749C14.2524 4.56264 14.3076 4.59952 14.354 4.64601C14.4005 4.6925 14.4374 4.74769 14.4626 4.80842C14.4877 4.86916 14.5007 4.93426 14.5007 5.00001C14.5007 5.06575 14.4877 5.13085 14.4626 5.19159C14.4374 5.25233 14.4005 5.30752 14.354 5.35401L8.35404 11.354C8.30759 11.4006 8.25242 11.4375 8.19167 11.4627C8.13093 11.4879 8.06581 11.5009 8.00004 11.5009C7.93427 11.5009 7.86915 11.4879 7.80841 11.4627C7.74766 11.4375 7.69248 11.4006 7.64604 11.354L1.64604 5.35401C1.59948 5.30756 1.56253 5.25239 1.53733 5.19164C1.51212 5.1309 1.49915 5.06578 1.49915 5.00001C1.49915 4.93424 1.51212 4.86912 1.53733 4.80837C1.56253 4.74763 1.59948 4.69245 1.64604 4.64601Z" fill="black"/>
</svg>
